<?xml version="1.0" encoding="UTF-8"?>
<svg xmlns="http://www.w3.org/2000/svg" xmlns:xlink="http://www.w3.org/1999/xlink" width="35px" height="35px" viewBox="0 0 35 35" version="1.1">
<g id="surface1">
<path style=" stroke:none;fill-rule:nonzero;fill:rgb(0%,0%,0%);fill-opacity:1;" d="M 28.996094 9.644531 C 29.003906 9.644531 29.015625 9.644531 29.027344 9.644531 C 29.199219 9.644531 29.359375 9.554688 29.441406 9.402344 L 31.757812 5.230469 C 31.863281 5.042969 31.828125 4.8125 31.679688 4.660156 L 30.339844 3.320312 C 30.1875 3.171875 29.957031 3.136719 29.769531 3.242188 L 25.597656 5.558594 C 25.4375 5.648438 25.34375 5.820312 25.355469 6.007812 L 25.460938 7.523438 L 18.300781 14.6875 L 14.257812 10.644531 C 14.953125 8.621094 14.441406 6.375 12.914062 4.847656 C 11.40625 3.339844 9.210938 2.8125 7.1875 3.476562 C 7.179688 3.480469 7.171875 3.484375 7.164062 3.488281 C 7.15625 3.488281 7.152344 3.492188 7.144531 3.496094 C 7.089844 3.519531 7.042969 3.550781 7.003906 3.589844 C 7.003906 3.589844 7 3.589844 7 3.59375 C 6.996094 3.597656 6.996094 3.601562 6.992188 3.601562 C 6.953125 3.644531 6.921875 3.691406 6.898438 3.742188 C 6.894531 3.75 6.894531 3.753906 6.890625 3.761719 C 6.871094 3.8125 6.863281 3.863281 6.859375 3.917969 C 6.859375 3.925781 6.859375 3.933594 6.859375 3.941406 C 6.863281 3.988281 6.867188 4.03125 6.882812 4.078125 C 6.886719 4.085938 6.886719 4.089844 6.890625 4.097656 C 6.894531 4.105469 6.898438 4.113281 6.902344 4.121094 C 6.925781 4.171875 6.957031 4.21875 6.992188 4.257812 C 6.996094 4.261719 6.996094 4.261719 7 4.265625 L 9.179688 6.449219 C 9.386719 6.652344 9.496094 6.925781 9.496094 7.214844 C 9.496094 7.503906 9.386719 7.773438 9.179688 7.976562 L 8.085938 9.074219 C 7.882812 9.277344 7.613281 9.390625 7.324219 9.390625 C 7.035156 9.390625 6.761719 9.277344 6.554688 9.070312 L 4.375 6.890625 C 4.371094 6.886719 4.371094 6.886719 4.367188 6.882812 C 4.328125 6.847656 4.28125 6.816406 4.230469 6.792969 C 4.222656 6.789062 4.214844 6.785156 4.207031 6.78125 C 4.199219 6.78125 4.191406 6.777344 4.1875 6.773438 C 4.140625 6.757812 4.09375 6.753906 4.050781 6.753906 C 4.042969 6.753906 4.035156 6.75 4.027344 6.753906 C 3.972656 6.753906 3.921875 6.765625 3.871094 6.78125 C 3.863281 6.785156 3.855469 6.789062 3.851562 6.792969 C 3.796875 6.8125 3.753906 6.84375 3.710938 6.882812 C 3.707031 6.886719 3.703125 6.886719 3.703125 6.890625 C 3.699219 6.890625 3.699219 6.894531 3.695312 6.898438 C 3.660156 6.9375 3.628906 6.984375 3.605469 7.035156 C 3.601562 7.042969 3.597656 7.050781 3.59375 7.058594 C 3.59375 7.066406 3.589844 7.070312 3.585938 7.078125 C 2.925781 9.105469 3.449219 11.300781 4.957031 12.804688 C 6.035156 13.886719 7.46875 14.457031 8.933594 14.457031 C 9.542969 14.457031 10.15625 14.351562 10.753906 14.148438 L 13.472656 16.867188 C 13.410156 16.859375 13.347656 16.847656 13.28125 16.847656 C 12.832031 16.847656 12.40625 17.023438 12.085938 17.34375 L 3.675781 25.753906 C 3.359375 26.074219 3.183594 26.5 3.183594 26.949219 C 3.183594 27.402344 3.359375 27.824219 3.675781 28.144531 L 6.855469 31.324219 C 7.175781 31.640625 7.597656 31.816406 8.050781 31.816406 C 8.5 31.816406 8.925781 31.640625 9.246094 31.324219 L 17.65625 22.910156 C 17.976562 22.59375 18.152344 22.167969 18.152344 21.714844 C 18.152344 21.652344 18.140625 21.589844 18.132812 21.527344 L 20.847656 24.242188 C 20.15625 26.269531 20.664062 28.515625 22.195312 30.042969 C 23.269531 31.121094 24.695312 31.695312 26.164062 31.695312 C 26.75 31.695312 27.34375 31.601562 27.921875 31.414062 C 27.929688 31.410156 27.9375 31.40625 27.941406 31.40625 C 27.949219 31.402344 27.957031 31.398438 27.964844 31.394531 C 28.015625 31.371094 28.0625 31.339844 28.101562 31.300781 C 28.105469 31.300781 28.109375 31.300781 28.109375 31.296875 C 28.113281 31.296875 28.113281 31.292969 28.117188 31.289062 C 28.15625 31.246094 28.1875 31.199219 28.207031 31.148438 C 28.210938 31.144531 28.214844 31.136719 28.21875 31.128906 C 28.234375 31.078125 28.246094 31.027344 28.246094 30.972656 C 28.246094 30.964844 28.246094 30.957031 28.246094 30.949219 C 28.246094 30.90625 28.242188 30.859375 28.226562 30.8125 C 28.222656 30.808594 28.21875 30.800781 28.214844 30.792969 C 28.214844 30.785156 28.210938 30.777344 28.207031 30.773438 C 28.183594 30.71875 28.152344 30.671875 28.113281 30.632812 C 28.113281 30.628906 28.113281 30.628906 28.109375 30.625 L 25.929688 28.445312 C 25.507812 28.019531 25.503906 27.335938 25.925781 26.914062 L 27.019531 25.820312 C 27.441406 25.398438 28.128906 25.398438 28.550781 25.820312 L 30.734375 28 C 30.734375 28.003906 30.738281 28.003906 30.742188 28.007812 C 30.78125 28.042969 30.828125 28.074219 30.878906 28.097656 C 30.886719 28.101562 30.894531 28.105469 30.902344 28.109375 C 30.910156 28.109375 30.914062 28.113281 30.921875 28.117188 C 30.972656 28.132812 31.019531 28.140625 31.070312 28.140625 C 31.128906 28.140625 31.183594 28.128906 31.234375 28.109375 C 31.25 28.105469 31.261719 28.09375 31.277344 28.085938 C 31.316406 28.070312 31.351562 28.046875 31.382812 28.019531 C 31.390625 28.011719 31.398438 28.007812 31.40625 28 C 31.414062 27.996094 31.414062 27.984375 31.421875 27.980469 C 31.449219 27.949219 31.46875 27.914062 31.488281 27.878906 C 31.496094 27.859375 31.507812 27.847656 31.515625 27.828125 C 31.515625 27.824219 31.519531 27.820312 31.523438 27.8125 C 32.1875 25.789062 31.660156 23.59375 30.152344 22.085938 C 28.625 20.558594 26.378906 20.046875 24.355469 20.742188 L 20.3125 16.699219 L 27.476562 9.539062 Z M 11.226562 13.277344 C 11.09375 13.136719 10.886719 13.085938 10.699219 13.160156 C 8.953125 13.871094 6.960938 13.46875 5.628906 12.132812 C 4.570312 11.078125 4.097656 9.613281 4.308594 8.167969 L 5.882812 9.742188 C 6.269531 10.128906 6.777344 10.339844 7.324219 10.339844 C 7.867188 10.339844 8.375 10.128906 8.757812 9.746094 L 9.855469 8.652344 C 10.238281 8.265625 10.449219 7.757812 10.449219 7.214844 C 10.449219 6.671875 10.238281 6.160156 9.851562 5.777344 L 8.273438 4.199219 C 9.71875 3.988281 11.183594 4.460938 12.242188 5.519531 C 13.574219 6.851562 13.976562 8.835938 13.273438 10.578125 C 13.269531 10.589844 13.265625 10.601562 13.261719 10.609375 C 13.246094 10.65625 13.238281 10.699219 13.238281 10.746094 C 13.238281 10.753906 13.234375 10.765625 13.234375 10.773438 C 13.234375 10.828125 13.246094 10.878906 13.265625 10.929688 C 13.265625 10.9375 13.269531 10.945312 13.269531 10.949219 C 13.292969 11.007812 13.328125 11.058594 13.371094 11.101562 C 13.371094 11.105469 13.375 11.105469 13.375 11.105469 L 17.628906 15.359375 L 16.691406 16.292969 C 16.421875 16.09375 16.097656 15.980469 15.757812 15.980469 C 15.339844 15.980469 14.945312 16.144531 14.648438 16.441406 L 14.519531 16.570312 Z M 16.984375 22.238281 L 8.574219 30.652344 C 8.292969 30.929688 7.804688 30.929688 7.527344 30.652344 L 4.347656 27.472656 C 4.210938 27.332031 4.132812 27.148438 4.132812 26.949219 C 4.132812 26.753906 4.210938 26.566406 4.347656 26.425781 L 12.761719 18.015625 C 12.898438 17.875 13.085938 17.796875 13.285156 17.796875 C 13.480469 17.796875 13.664062 17.875 13.804688 18.015625 L 16.984375 21.195312 C 17.125 21.332031 17.199219 21.519531 17.199219 21.714844 C 17.199219 21.914062 17.125 22.097656 16.984375 22.238281 Z M 17.882812 19.679688 L 17.351562 20.214844 L 14.789062 17.652344 L 14.855469 17.582031 C 14.855469 17.582031 14.859375 17.582031 14.859375 17.582031 C 14.859375 17.578125 14.859375 17.578125 14.859375 17.578125 L 15.320312 17.113281 C 15.554688 16.878906 15.960938 16.878906 16.195312 17.113281 L 16.371094 17.285156 L 17.710938 18.628906 L 17.886719 18.804688 C 18.003906 18.921875 18.070312 19.078125 18.070312 19.242188 C 18.066406 19.40625 18.003906 19.5625 17.882812 19.679688 Z M 23.894531 21.625 C 23.894531 21.625 23.894531 21.628906 23.894531 21.628906 L 23.898438 21.628906 C 23.941406 21.671875 23.992188 21.707031 24.050781 21.730469 C 24.054688 21.734375 24.0625 21.734375 24.070312 21.734375 C 24.121094 21.753906 24.171875 21.765625 24.222656 21.765625 C 24.226562 21.765625 24.230469 21.769531 24.234375 21.769531 C 24.242188 21.769531 24.25 21.765625 24.253906 21.765625 C 24.300781 21.761719 24.34375 21.753906 24.390625 21.738281 C 24.398438 21.734375 24.410156 21.730469 24.421875 21.726562 C 26.164062 21.023438 28.148438 21.429688 29.480469 22.757812 C 30.539062 23.816406 31.011719 25.28125 30.800781 26.726562 L 29.226562 25.148438 C 28.433594 24.355469 27.140625 24.355469 26.347656 25.148438 L 25.253906 26.242188 C 24.460938 27.035156 24.464844 28.324219 25.257812 29.117188 L 26.832031 30.691406 C 25.390625 30.902344 23.921875 30.429688 22.867188 29.371094 C 21.53125 28.039062 21.128906 26.046875 21.839844 24.300781 C 21.914062 24.113281 21.863281 23.90625 21.722656 23.777344 L 18.429688 20.480469 L 18.558594 20.351562 C 18.855469 20.054688 19.019531 19.660156 19.019531 19.242188 C 19.019531 18.902344 18.90625 18.578125 18.703125 18.308594 L 19.640625 17.371094 Z M 27.300781 8.574219 C 27.296875 8.574219 27.289062 8.574219 27.285156 8.574219 C 27.152344 8.574219 27.03125 8.632812 26.945312 8.726562 L 18.046875 17.621094 L 17.378906 16.953125 L 26.285156 8.042969 C 26.289062 8.042969 26.289062 8.042969 26.289062 8.039062 C 26.332031 7.996094 26.363281 7.949219 26.386719 7.890625 C 26.390625 7.886719 26.390625 7.886719 26.390625 7.882812 C 26.410156 7.832031 26.421875 7.777344 26.421875 7.71875 C 26.425781 7.710938 26.425781 7.707031 26.425781 7.699219 C 26.425781 7.691406 26.425781 7.683594 26.425781 7.675781 L 26.324219 6.242188 L 29.917969 4.246094 L 30.753906 5.082031 L 28.757812 8.675781 L 27.324219 8.574219 C 27.316406 8.574219 27.308594 8.574219 27.300781 8.574219 Z M 27.300781 8.574219 "/>
</g>
</svg>
